<svg width="902.41854" height="826.20679" xmlns="http://www.w3.org/2000/svg" data-name="Layer 1">

 <g>
  <title>Layer 1</title>
  <path id="svg_1" fill="#364659" d="m578.15879,659.81106l8.67165,19.44392c-7.04887,-1.12221 -13.60391,4.89778 -13.75121,12.62878s6.13979,15.77421 13.18911,16.8731c-1.34708,6.00231 -7.16088,8.64855 -12.20732,11.07451s-10.48544,6.44956 -10.11,12.84517c0.30146,5.13535 4.548,9.66922 9.05769,11.49215s9.24135,1.54272 13.80858,1.23684c-6.921,7.23984 -7.59561,20.84776 -1.51747,30.61081s18.21665,14.56912 27.30539,10.8112c-6.42186,7.98853 -5.02668,22.61792 2.94328,30.86218c8.03432,8.31083 19.678,9.11525 29.85706,8.23972a132.23791,132.23791 0 0 0 71.00684,-28.14c7.78173,-6.1834 15.05042,-13.45556 19.48953,-22.94127s5.747,-21.49572 1.61222,-32.29045c1.1152,13.52239 14.64995,24.20276 26.82589,24.80038s22.80664,-6.26052 31.84054,-14.08111c12.014,-10.40049 23.13736,-24.9791 21.48841,-42.967c-0.81631,-8.90487 -4.70578,-17.46936 -8.52054,-25.765l-7.39565,-16.08273c-2.98571,-6.49278 -6.03914,-13.09517 -10.53293,-18.54375s-10.73125,-9.66651 -16.97307,-9.62643c1.42718,-6.5202 2.86077,-13.28339 1.66478,-20.211s-5.77577,-14.10054 -12.00424,-15.72285c-7.92682,-2.06468 -14.6448,5.25038 -22.6158,4.56081c-7.67069,-0.6636 -14.01,-8.362 -21.45871,-11.4124a17.17785,17.17785 0 0 0 -18.53718,3.20639c-4.722,4.6097 -6.69032,12.39794 -4.99586,19.76719c1.48435,6.45545 5.43465,12.14909 7.83232,18.37489s2.76983,14.231 -1.8351,17.63129c-5.55664,4.103 -14.01442,-1.48021 -18.35566,-8.23484s-6.83379,-14.93336 -12.32361,-20.614c-6.47924,-6.70451 -16.62148,-8.27573 -23.29257,-3.60845s-9.22234,15.11922 -5.85919,24.00383c2.74987,7.26449 9.04909,14.6135 6.86437,21.45428c-2.309,7.2298 -12.41262,6.31432 -18.50707,1.20471s-10.14111,-12.8059 -16.16143,-18.03027c-6.114,-5.30562 -14.09812,-7.63035 -21.10721,-6.14573a21.73057,21.73057 0 0 0 -15.57311,13.9151"/>
  <path id="svg_2" fill="#3f3d56" d="m718.55594,605.16972l-17.99256,8.35958a13.81228,13.81228 0 0 1 -8.73392,1.17747c-2.61209,-0.61776 -4.37716,-2.21477 -4.84109,-4.3833l-4.18659,-19.55422c-0.7905,-3.68869 2.26453,-8.05314 7.26376,-10.37585l9.93652,-4.61663c4.99924,-2.32271 10.305,-1.8428 12.61429,1.14024l12.24431,15.81049c1.35812,1.75309 1.4403,4.132 0.22783,6.52669a13.81219,13.81219 0 0 1 -6.53255,5.91553z"/>
  <path id="svg_3" fill="#21242d" d="m160.63951,243.7622a353.9984,353.9984 0 0 1 77.50168,-124.05681c29.00636,-30.1117 74.15027,-28.86051 74.15027,-28.86051l0.25785,-0.32a87.58018,87.58018 0 0 1 92.55272,-28.91249c4.30426,1.23514 7.615,1.78263 9.18943,1.23249c28.70712,-10.04708 27.35834,-32.72422 52.12616,-50.99278c43.367,-31.98718 187.21094,4.6535 207.4942,63.51371c16.43915,47.70488 89.82021,70.827 117.23582,107.31737q6.43059,8.55861 12.618,17.31558q2.90129,4.06824 5.73748,8.19783a730.4283,730.4283 0 0 1 52.14714,88.15542a514.11313,514.11313 0 0 1 26.10088,61.68445c28.591,83.58209 18.8138,145.8549 -60.021,130.47014q-13.99815,-2.739 -27.32378,-4.90113q-19.2962,-3.14892 -37.24641,-5.17566q-24.17227,-2.74893 -45.99366,-3.60217q-7.33723,-0.29524 -14.40509,-0.39579c-69.67037,-0.966 -121.34893,12.1465 -160.719,32.50168q-10.01082,5.16279 -18.97332,10.92332a236.05444,236.05444 0 0 0 -26.08005,19.31927a254.89837,254.89837 0 0 0 -31.42249,32.19714l-0.52216,0.6393c-46.04826,56.326 -61.203,118.68168 -93.23451,129.6607c-136.92626,46.94026 -223.52635,-123.21979 -232.4074,-289.67387q-0.67263,-12.58159 -0.74315,-25.09128q-0.04163,-5.59155 0.055,-11.15359c0.14052,-9.67346 0.567,-19.28471 1.28114,-28.7797q0.40006,-5.44542 0.92807,-10.83322c0.3879,-3.87342 0.80989,-7.72368 1.2976,-11.54982c3.48327,-28.04639 9.57696,-54.73033 18.41858,-78.82958z"/>
  <path id="svg_4" fill="#3f3d56" d="m585.04281,335.34364c-10.93522,5.09113 -11.11539,27.895 -7.68649,35.28386l6.21383,13.37421l39.60938,-18.403l-6.21383,-13.37421c-3.4356,-7.3858 -20.97965,-21.95475 -31.92289,-16.88086z"/>
  <path id="svg_5" fill="#3f3d56" d="m478.60201,527.35955a4.33285,4.33285 0 0 1 -4.06983,-5.81934a4.29966,4.29966 0 0 1 2.24317,-2.44043l204.55371,-95.03809a4.33007,4.33007 0 0 1 5.752,2.10157a4.33573,4.33573 0 0 1 -2.10254,5.752l-0.00049,0l-204.55376,95.03804a4.30619,4.30619 0 0 1 -1.82226,0.40625z"/>
  <rect id="svg_6" fill="#e6e6e6" transform="rotate(-24.9202, -294.434, 350.607)" height="217.68038" width="64.47381" y="765.08087" x="477.35379"/>
  <path id="svg_7" fill="#3f3d56" d="m419.11379,125.61752c-10.93522,5.09113 -11.11539,27.895 -7.68649,35.28386l6.21383,13.37421l39.60938,-18.403l-6.21383,-13.3742c-3.4356,-7.38581 -20.97965,-21.95476 -31.92289,-16.88087z"/>
  <path id="svg_8" fill="#3f3d56" d="m664.12859,627.86417l-17.99256,8.35958a13.81216,13.81216 0 0 1 -8.73392,1.17747c-2.6121,-0.61775 -4.37717,-2.21476 -4.84109,-4.3833l-4.1866,-19.55421c-0.79049,-3.68869 2.26453,-8.05314 7.26377,-10.37585l9.93651,-4.61664c4.99924,-2.32271 10.305,-1.8428 12.6143,1.14025l12.24427,15.81049c1.35811,1.75309 1.4403,4.132 0.22783,6.52668a13.81219,13.81219 0 0 1 -6.53251,5.91553z"/>
  <path id="svg_9" fill="#3f3d56" d="m608.80984,655.30991l-17.99257,8.35958a13.81222,13.81222 0 0 1 -8.73392,1.17747c-2.6121,-0.61776 -4.37716,-2.21476 -4.84109,-4.3833l-4.18659,-19.55422c-0.7905,-3.68869 2.26452,-8.05313 7.26376,-10.37584l9.93652,-4.61664c4.99923,-2.32271 10.305,-1.8428 12.61429,1.14024l12.24431,15.8105c1.35811,1.75308 1.4403,4.132 0.22783,6.52668a13.81219,13.81219 0 0 1 -6.53254,5.91553z"/>
  <rect id="svg_10" fill="#e6e6e6" transform="rotate(-24.9202, -272.329, 299.989)" height="440.01582" width="64.47381" y="527.96705" x="395.97277"/>
  <polyline id="svg_11" fill="#3f3d56" points="548.951 403.691 542.39 389.254 546.167 387.512 552.708 401.903 647.423 611.909 643.65 613.662"/>
  <polyline id="svg_12" fill="#3f3d56" points="622.951 391.691 616.39 377.254 620.167 375.512 626.708 389.903 721.423 599.909 717.65 601.662"/>
  <path id="svg_13" fill="#e6e6e6" d="m515.88021,229.91722l-79.22567,36.80928c-5.044,-7.84723 -20.24939,-48.06017 -16.83519,-59.99122l-2.56272,-11.37766l54.70348,-25.416l7.32219,9.00725c10.86912,3.33496 32.02851,41.10585 36.59791,50.96835z"/>
  <path id="svg_14" fill="#e6e6e6" d="m474.24603,170.42839l-56.45093,26.22784c-2.08362,0.968 -4.30262,0.61217 -4.95626,-0.79495a1.95213,1.95213 0 0 1 -0.17209,-0.6429l-2.92164,-31.16788c-0.1251,-1.33466 1.01667,-2.84708 2.76109,-3.65756l37.43681,-17.39355c1.74442,-0.81048 3.63664,-0.70769 4.576,0.24866l21.93586,22.33363c1.12192,1.14229 0.51268,3.09757 -1.36081,4.36726a6.08075,6.08075 0 0 1 -0.84803,0.47945z"/>
  <path id="svg_15" fill="#3f3d56" d="m518.52242,414.61739a7.62608,7.62608 0 0 1 -1.814,-0.21387a5.60386,5.60386 0 0 1 -3.89648,-3.02539l-34.51267,-74.28274c-1.42822,-3.0752 0.48926,-7.00782 4.27442,-8.76661l50.53613,-23.48c3.78564,-1.75976 8.02734,-0.6875 9.45654,2.38721l34.5127,74.2832a5.60256,5.60256 0 0 1 -0.20069,4.92872a8.50632,8.50632 0 0 1 -4.07422,3.83789l-50.53564,23.479a8.9197,8.9197 0 0 1 -3.74609,0.85259z"/>
  <rect id="svg_16" fill="#e6e6e6" transform="rotate(-24.9202, -326.769, 307.736)" height="217.68038" width="64.47381" y="773.94391" x="331.84297"/>
  <path id="svg_17" fill="#3f3d56" d="m453.39814,173.68457l-17.14693,7.9667c-3.30882,1.53733 -7.77287,-1.02438 -9.94972,-5.70968s-1.25568,-9.74905 2.05314,-11.28637l17.14693,-7.9667c3.30882,-1.53733 7.77287,1.02438 9.94972,5.70968s1.25569,9.74905 -2.05314,11.28637z"/>
  <path id="svg_18" fill="#3f3d56" d="m473.00848,386.54697c-10.93522,5.09113 -11.11539,27.895 -7.68649,35.28386l6.21383,13.37421l39.60938,-18.403l-6.21383,-13.37425c-3.4356,-7.38576 -20.97965,-21.95471 -31.92289,-16.88082z"/>
  <path id="svg_19" fill="#e6e6e6" d="m291.36097,341.02827c-3.862,2.57319 -7.8147,-3.55124 -3.87848,-6.01018c3.86178,-2.57305 7.81451,3.55139 3.87848,6.01018z"/>
  <path id="svg_20" fill="#e6e6e6" d="m693.36097,253.02827c-3.862,2.57319 -7.8147,-3.55124 -3.87848,-6.01018c3.86178,-2.57305 7.81451,3.55139 3.87848,6.01018z"/>
  <path id="svg_21" fill="#e6e6e6" d="m419.36097,323.02827c-3.862,2.57319 -7.8147,-3.55124 -3.87848,-6.01018c3.86178,-2.57305 7.81451,3.55139 3.87848,6.01018z"/>
  <path id="svg_22" fill="#e6e6e6" d="m291.36097,563.02827c-3.862,2.57319 -7.8147,-3.55124 -3.87848,-6.01018c3.86178,-2.57305 7.81451,3.55139 3.87848,6.01018z"/>
  <path id="svg_23" fill="#e6e6e6" d="m488.36097,62.02827c-3.862,2.57319 -7.8147,-3.55124 -3.87848,-6.01018c3.86178,-2.57305 7.81451,3.55139 3.87848,6.01018z"/>
  <path id="svg_24" fill="#e6e6e6" d="m298.36097,180.02827c-3.862,2.57319 -7.8147,-3.55124 -3.87848,-6.01018c3.86178,-2.57305 7.81451,3.55139 3.87848,6.01018z"/>
  <polygon id="svg_25" fill="#e6e6e6" points="571.639 146.2 569.182 145.661 569.72 143.203 568.082 142.844 567.543 145.302 565.086 144.764 564.727 146.402 567.184 146.941 566.646 149.398 568.284 149.757 568.823 147.299 571.28 147.838 571.639 146.2"/>
  <polygon id="svg_26" fill="#e6e6e6" points="171.542 350.978 169.085 350.439 169.623 347.982 167.985 347.623 167.446 350.08 164.988 349.542 164.629 351.18 167.087 351.719 166.549 354.177 168.187 354.535 168.726 352.078 171.183 352.616 171.542 350.978"/>
  <path id="svg_27" fill="#3f3d56" d="m675.42927,455.43626a8.50983,8.50983 0 0 1 -11.29014,-4.12709l-10.11253,-21.7655a8.5,8.5 0 0 1 15.41723,-7.163l10.11253,21.76549a8.50983,8.50983 0 0 1 -4.12709,11.2901z"/>
  <path id="svg_28" fill="#3f3d56" d="m503.42927,535.43626a8.50983,8.50983 0 0 1 -11.29014,-4.12709l-10.11253,-21.7655a8.5,8.5 0 0 1 15.41723,-7.163l10.11253,21.76549a8.50983,8.50983 0 0 1 -4.12709,11.2901z"/>
  <path id="svg_29" fill="#e6e6e6" d="m659.85103,407.88149l-67.80585,31.50349c-4.317,-6.71611 -17.33058,-41.13265 -14.40852,-51.34393l1.43426,-11.42307l40.48614,-19.86306l8.9714,7.505c12.63995,-4.27339 31.22003,27.04802 31.32257,43.62157z"/>
  <path id="svg_30" fill="#3f3d56" d="m628.37105,405.69715l-17.14693,7.96671c-3.30882,1.53733 -8.34353,-2.25264 -11.22164,-8.44728s-2.52761,-12.48665 0.78121,-14.024l17.14693,-7.96671c3.30882,-1.53732 8.34353,2.25264 11.22164,8.44728s2.52761,12.48668 -0.78121,14.024z"/>
  <polyline id="svg_31" fill="#3f3d56" points="482.951 446.691 476.39 432.254 480.167 430.512 486.708 444.903 581.423 654.909 577.65 656.662"/>
  <path id="svg_32" fill="#e6e6e6" d="m547.81672,459.08482l-67.8059,31.50349c-10.00311,-5.16492 -25.29108,-38.961 -14.40851,-51.34394l1.43428,-11.42306l40.48614,-19.86306l8.9714,7.505c9.30241,2.85414 27.41184,35.18067 31.32259,43.62157z"/>
  <path id="svg_33" fill="#3f3d56" d="m514.9412,453.89687l-17.14693,7.9667c-3.30882,1.53733 -8.03047,-1.57883 -10.52388,-6.94547s-1.82985,-10.98484 1.479,-12.52216l17.14693,-7.96671c3.30882,-1.53732 8.03047,1.57884 10.52388,6.94547s1.82982,10.98484 -1.479,12.52217z"/>
  <circle id="svg_34" fill="#48dbfb" r="103" cy="204.8449" cx="171.29146"/>
  <path id="svg_35" opacity="0.3" fill="#f0f0f0" d="m593.60549,312.12392l62.59321,-182.809l-68.73123,180.62069a3.44161,3.44161 0 1 0 6.138,2.18831l0.00002,0z"/>
  <path id="svg_36" fill="#3f3d56" d="m753.15939,203.15793q-18.37971,6.10836 -40.75145,12.00083c-77.14515,20.311 -180.54976,36.15428 -291.16558,44.61271c-110.61535,8.45828 -215.22739,8.51948 -294.5635,0.17426c-38.6472,-4.06578 -69.21495,-9.91317 -90.85368,-17.381c-22.90943,-7.9053 -34.94724,-17.43191 -35.77952,-28.31364c-1.62074,-21.19968 40.21258,-39.85854 75.59194,-51.77816l0.95819,2.84289c-48.58523,16.36871 -74.70862,33.66657 -73.55842,48.70667c1.4643,19.15595 46.64436,34.80631 123.95529,42.93958c79.16179,8.327 183.58052,8.26316 294.02138,-0.18138c110.44009,-8.44531 213.6549,-24.25739 290.63031,-44.52332c75.17352,-19.79057 117.45048,-42.12921 115.98557,-61.28547c-1.21629,-15.90466 -32.56722,-29.51036 -88.2777,-38.3124l0.46834,-2.963c40.48,6.39573 89.09256,18.70823 90.80107,41.04675c0.83181,10.88188 -9.61776,22.12737 -31.05892,33.424c-12.22237,6.43924 -27.75208,12.79214 -46.40332,18.99068z"/>
  <circle id="svg_37" fill="#48dbfb" r="10.70234" cy="375.13624" cx="783.42532"/>
  <circle id="svg_38" fill="#f2f2f2" r="10.70234" cy="665.13624" cx="851.42532"/>
  <circle id="svg_39" fill="#f2f2f2" r="20.86614" cy="720.13624" cx="486.42532"/>
  <circle id="svg_40" fill="#3f3d56" r="10.70234" cy="454.13624" cx="327.42532"/>
  <polygon id="svg_41" fill="#e6e6e6" points="687.226 478.768 733.402 490.721 761.723 546.349 713.843 548.227 687.226 478.768"/>
  <polygon id="svg_42" fill="#ccc" points="580.645 398.574 606.059 424.002 670.606 563.557 658.722 573.824 580.645 398.574"/>
  <polygon id="svg_43" fill="#ccc" points="525.386 421.624 527.38 457.52 588.304 598.694 603.88 596.688 525.386 421.624"/>
  <polygon id="svg_44" fill="#e6e6e6" points="523.723 566.637 498.854 607.339 517.187 667.008 552.9 635.061 523.723 566.637"/>
  <path id="svg_45" fill="#3f3d56" d="m743.40474,591.64707q-19.36816,0 -42.45654,-1.46387c-79.61377,-5.05566 -182.7378,-22.63281 -290.376,-49.49219c-107.63769,-26.85937 -206.93017,-59.79394 -279.58545,-92.73437c-35.39258,-16.04688 -62.55615,-31.23633 -80.73535,-45.14746c-19.24707,-14.727 -27.666,-27.564 -25.02393,-38.15283c5.14795,-20.62891 50.731,-25.14209 88.064,-25.29541l0.01269,3c-51.26806,0.21044 -81.51367,8.38671 -85.16552,23.022c-4.65186,18.64013 33.28662,47.74072 104.08691,79.84131c72.49561,32.86816 171.60547,65.73925 279.07324,92.55664c107.46729,26.8164 210.40137,44.36328 289.83985,49.4082c77.57861,4.92773 124.74316,-2.9375 129.39453,-21.57812c3.86181,-15.47657 -21.59815,-38.2754 -71.68945,-64.19825l1.3789,-2.66406c36.397,18.83594 78.64551,45.85156 73.22168,67.58887c-2.64259,10.58886 -16.10548,17.96486 -40.01515,21.92286c-13.62939,2.25582 -30.37011,3.38668 -50.02441,3.38668z"/>
 </g>
</svg>